<svg height="512" viewBox="0 0 512 512" width="512" xmlns="http://www.w3.org/2000/svg"><g id="flat"><path d="m64 432a8 8 0 0 1 -8-8v-200a8 8 0 0 1 16 0v200a8 8 0 0 1 -8 8z" fill="#d18d28"/><path d="m118 320h276a14 14 0 0 1 14 14v50a0 0 0 0 1 0 0h-304a0 0 0 0 1 0 0v-50a14 14 0 0 1 14-14z" fill="#e4e4e2"/><path d="m104 384h304v72h-304z" fill="#834b10"/><path d="m488 456h-80v-24h8v-40h-8v-32h80z" fill="#744630"/><path d="m408 392h80v32h-80z" fill="#5b3726"/><path d="m456 344a8 8 0 0 1 -8-8v-32a8 8 0 0 1 16 0v32a8 8 0 0 1 -8 8z" fill="#b9b9b9"/><path d="m432 336h48v24h-48z" fill="#fbb540"/><path d="m432 352h48v8h-48z" fill="#ea9d2d"/><path d="m135 240h242a15 15 0 0 1 15 15v65a0 0 0 0 1 0 0h-272a0 0 0 0 1 0 0v-65a15 15 0 0 1 15-15z" fill="#834b10"/><path d="m176.7 312.468-24.7-16.468 24.7-16.468a42 42 0 0 1 46.594 0l24.706 16.468-24.7 16.468a42 42 0 0 1 -46.6 0z" fill="#ebebeb"/><path d="m288.7 312.468-24.7-16.468 24.7-16.468a42 42 0 0 1 46.594 0l24.706 16.468-24.7 16.468a42 42 0 0 1 -46.6 0z" fill="#ebebeb"/><path d="m34 424h60a10 10 0 0 1 10 10v22a0 0 0 0 1 0 0h-80a0 0 0 0 1 0 0v-22a10 10 0 0 1 10-10z" fill="#fbb540"/><path d="m40 272a8 8 0 0 1 -8-8v-40a8 8 0 0 1 16 0v40a8 8 0 0 1 -8 8z" fill="#cbcbcb"/><path d="m143 64h226a15 15 0 0 1 15 15v65a0 0 0 0 1 0 0h-256a0 0 0 0 1 0 0v-65a15 15 0 0 1 15-15z" fill="#ebebeb"/><path d="m160 120h160v24h-160z" fill="#cbcbcb"/><path d="m160 96h160v24h-160z" fill="#dbdbdb"/><path d="m344 112h16v16h-16z" fill="#02a437"/><path d="m344 80h16v16h-16z" fill="#f55648"/><g fill="#c1e3f7"><path d="m256 216a8 8 0 0 1 -8-8v-32a8 8 0 0 1 16 0v32a8 8 0 0 1 -8 8z"/><path d="m200.008 216a8 8 0 0 1 -4.446-14.657l10.688-7.125a21.855 21.855 0 0 0 9.75-18.218 8 8 0 0 1 16 0 37.821 37.821 0 0 1 -16.875 31.531l-10.687 7.125a7.967 7.967 0 0 1 -4.43 1.344z"/><path d="m311.992 216a7.961 7.961 0 0 1 -4.43-1.345l-10.687-7.125a37.821 37.821 0 0 1 -16.875-31.53 8 8 0 0 1 16 0 21.855 21.855 0 0 0 9.75 18.219l10.688 7.125a8 8 0 0 1 -4.446 14.656z"/></g><path d="m152 360h-16a8 8 0 0 1 0-16h16a8 8 0 0 1 0 16z" fill="#fbfbf9"/><path d="m232 360h-48a8 8 0 0 1 0-16h48a8 8 0 0 1 0 16z" fill="#fbfbf9"/><path d="m136 416h240v40h-240z" fill="#683b0d"/><path d="m160 120h160v8h-160z" fill="#b9b9b9"/><path d="m160 96h160v8h-160z" fill="#cbcbcb"/><path d="m408 424h80v8h-80z" fill="#663d2a"/><path d="m408 392h80v8h-80z" fill="#533222"/><path d="m488 304h-64l8-48h48z" fill="#0a71cd"/><path d="m448 304h16v16h-16z" fill="#a8a8a8"/><path d="m32 224h16v16h-16z" fill="#b9b9b9"/><path d="m56 216h16v24h-16z" fill="#c38325"/><path d="m104 224h-80l7.446-37.231 6.259-2.293-2.627-15.866 4.922-24.61h48l4.922 24.61-1.917 17.416 5.549.743z" fill="#f55648"/><path d="m96.55 186.77-10.89 10.89a8.015 8.015 0 0 1 -11.32 0l-10.34-10.35-10.34 10.35a8.015 8.015 0 0 1 -11.32 0l-10.89-10.89 3.63-18.16a7.967 7.967 0 0 1 2.58 1.73l10.34 10.35 10.34-10.35a8.015 8.015 0 0 1 11.32 0l10.34 10.35 10.34-10.35a7.967 7.967 0 0 1 2.58-1.73z" fill="#ebebeb"/><path d="m104 376h304v8h-304z" fill="#c3c3c3"/></g></svg>