<svg id="Capa_1" enable-background="new 0 0 511 511" height="512" viewBox="0 0 511 511" width="512" xmlns="http://www.w3.org/2000/svg"><g><path d="m436 233h30v65h-30z" fill="#5c7099"/><path d="m451 233h15v65h-15z" fill="#405580"/><path d="m49.857 101.022v114.478l130.143 20 139.511-20v-114.478z" fill="#995c5c"/><path d="m180 101.022v134.478l139.511-20v-114.478z" fill="#804040"/><path d="m222.5 145.5h-85c-26.191 0-47.5 21.309-47.5 47.5v22.5l90 30 90-30v-22.5c0-26.191-21.309-47.5-47.5-47.5z" fill="#9cf"/><path d="m180 245.5 90-30v-22.5c0-26.191-21.309-47.5-47.5-47.5h-42.5z" fill="#80aaff"/><path d="m300 55.5v30h-240v-30h-30v30 15 130l30-15v-100h240v100l30 15v-130-15-30z" fill="#b37d7d"/><path d="m180 115.5h120v115h30v-130-15-30h-30v30h-120z" fill="#995c5c"/><path d="m315 215.5h-269c-25.364 0-46 20.636-46 46v59l180 58.132 180-58.132v-59c0-25.794-19.767-46-45-46z" fill="#e6f2ff"/><path d="m315 215.5h-135v120h180v-74c0-25.794-19.767-46-45-46z" fill="#cce6ff"/><path d="m30 395.5v60h90v-60l-45-30z" fill="#995c5c"/><path d="m240 395.5v60h90v-60l-45-30z" fill="#804040"/><path d="m0 320.5v75h180l32.527-37.5-32.527-37.5z" fill="#b37d7d"/><path d="m180 320.5h180v75h-180z" fill="#995c5c"/><path d="m391 283v160h59.949l39.556-80-39.556-80z" fill="#b37d7d"/><g fill="#995c5c"><path d="m450.949 283h60.051v160h-60.051z"/><path d="m469.934 330.418-18.985 17.423h-29.93v-34.846h29.93z"/><path d="m450.949 413.005h-29.93v-34.846h29.93l15.051 17.341z"/></g><path d="m450.949 312.995h29.93v34.846h-29.93z" fill="#804040"/><path d="m450.949 378.159h29.93v34.846h-29.93z" fill="#804040"/><path d="m451 128h-42.5l-17.551 90v30h60l30.026-60z" fill="#ffdd70"/><path d="m450.949 248h15 45v-30h-.001l-17.55-90h-42.398z" fill="#f8c045"/></g></svg>